# xmcd CD database file
#
# Track frame offsets:
#	180
#	17626
#	32271
#	49732
#	65699
#	80910
#	90627
#	104864
#	124195
#	145105
#	161681
#	173880
#
# Disc length: 2528 seconds
#
# Revision: 0
# Processed by: cddbd v1.5.1PL0 Copyright (c) Steve Scherf et al.
# Submitted via: CDex 1.51
#
DISCID=a309de0c
DTITLE=Gerry McGee - Born In Louisiana
DYEAR=1900
DGENRE=Blues
TTITLE0=Born In Louisiana
TTITLE1=Mean Old 'Frisco
TTITLE2=I Got Ramblin' On My Mind
TTITLE3=House Of The Rising Sun
TTITLE4=Crazy About You Baby
TTITLE5=I Want To Go To Tokyo
TTITLE6=My Babe Is Good To Me
TTITLE7=Sad Situation
TTITLE8=Chalk It Up
TTITLE9=Big Mamou
TTITLE10=Come On In My Kitchen
TTITLE11=No Parking Zone
EXTD=
EXTT0=
EXTT1=
EXTT2=
EXTT3=
EXTT4=
EXTT5=
EXTT6=
EXTT7=
EXTT8=
EXTT9=
EXTT10=
EXTT11=
PLAYORDER=
